{
    "asset" : {
        "generator" : "Khronos glTF Blender I/O v3.3.32",
        "version" : "2.0"
    },
    "extensionsUsed" : [
        "KHR_materials_ior"
    ],
    "scene" : 0,
    "scenes" : [
        {
            "name" : "Scene",
            "nodes" : [
                20
            ]
        }
    ],
    "nodes" : [
        {
            "mesh" : 0,
            "name" : "Button_Angry"
        },
        {
            "name" : "Button_Angry_A",
            "rotation" : [
                0.46174874901771545,
                0,
                0,
                0.8870107531547546
            ]
        },
        {
            "name" : "Button_Angry_BrowL_A",
            "rotation" : [
                0.0019025247311219573,
                -0.04357783868908882,
                0.04357791692018509,
                0.9980973601341248
            ],
            "translation" : [
                -2.7292330265045166,
                0.3520997166633606,
                0.058094896376132965
            ]
        },
        {
            "name" : "Button_Angry_BrowL_B",
            "rotation" : [
                -0.03378282114863396,
                -0.12607857584953308,
                0.2566048800945282,
                0.9576622247695923
            ],
            "translation" : [
                1.7646760940551758,
                2.354055643081665,
                0.058094631880521774
            ]
        },
        {
            "children" : [
                2,
                3
            ],
            "name" : "Button_Angry_BrowL",
            "rotation" : [
                -1,
                0,
                0,
                4.330999558987969e-08
            ],
            "translation" : [
                6.138529300689697,
                16.969402313232422,
                0.9770671129226685
            ]
        },
        {
            "name" : "Button_Angry_BrowR_A",
            "rotation" : [
                0.0019026313675567508,
                0.0435778982937336,
                -0.04357791319489479,
                0.9980973601341248
            ],
            "translation" : [
                2.730001449584961,
                0.3521035313606262,
                0.05809513479471207
            ]
        },
        {
            "name" : "Button_Angry_BrowR_B",
            "rotation" : [
                -0.022665729746222496,
                0.12854313850402832,
                -0.1721624732017517,
                0.9763826131820679
            ],
            "translation" : [
                -1.7639994621276855,
                2.3540565967559814,
                0.05809415504336357
            ]
        },
        {
            "children" : [
                5,
                6
            ],
            "name" : "Button_Angry_BrowR",
            "rotation" : [
                -1,
                0,
                0,
                4.32979447850812e-08
            ],
            "translation" : [
                -6.139002323150635,
                16.969402313232422,
                0.9770652055740356
            ]
        },
        {
            "children" : [
                4,
                7
            ],
            "name" : "Button_Angry_Brow",
            "rotation" : [
                0.7071068286895752,
                0,
                0,
                0.7071067094802856
            ]
        },
        {
            "name" : "Button_Angry_EyeL",
            "translation" : [
                0,
                1.1340348720550537,
                -2.9206275939941406e-06
            ]
        },
        {
            "children" : [
                9
            ],
            "name" : "Button_Angry_Eye_L",
            "rotation" : [
                0.764057993888855,
                -0.14898677170276642,
                -0.15699905157089233,
                0.6077578663825989
            ],
            "scale" : [
                1.8127002716064453,
                1.8126994371414185,
                1.8127000331878662
            ],
            "translation" : [
                7.032203197479248,
                14.306573867797852,
                3.3089230060577393
            ]
        },
        {
            "name" : "Button_Angry_EyeR",
            "translation" : [
                0,
                1.1340352296829224,
                0
            ]
        },
        {
            "children" : [
                11
            ],
            "name" : "Button_Angry_Eye_R",
            "rotation" : [
                0.7640575170516968,
                0.14898639917373657,
                0.15699908137321472,
                0.6077585816383362
            ],
            "scale" : [
                1.8127002716064453,
                1.8127007484436035,
                1.8127007484436035
            ],
            "translation" : [
                -7.032007217407227,
                14.306575775146484,
                3.308922052383423
            ]
        },
        {
            "children" : [
                10,
                12
            ],
            "name" : "Button_Angry_Eye",
            "rotation" : [
                0.7071068286895752,
                0,
                0,
                0.7071067094802856
            ]
        },
        {
            "name" : "Button_Angry_LipL",
            "rotation" : [
                -0.1371515542268753,
                0.00802196841686964,
                0.25086116790771484,
                0.9582242965698242
            ],
            "scale" : [
                0.6327112913131714,
                0.6327111721038818,
                0.6327113509178162
            ],
            "translation" : [
                0.4930868446826935,
                -1.8506864309310913,
                0.12477590888738632
            ]
        },
        {
            "name" : "Button_Angry_LipR",
            "rotation" : [
                0.13715170323848724,
                0.008022025227546692,
                -0.25086116790771484,
                0.9582242965698242
            ],
            "scale" : [
                0.6327112317085266,
                0.6327112317085266,
                0.6327112317085266
            ],
            "translation" : [
                0.4930863082408905,
                1.8510209321975708,
                0.12477491050958633
            ]
        },
        {
            "children" : [
                14,
                15
            ],
            "name" : "Button_Angry_Lip",
            "rotation" : [
                0.6272114515304565,
                -0.6272109150886536,
                0.3265061378479004,
                0.3265058100223541
            ],
            "scale" : [
                0.6853333711624146,
                1.3140050172805786,
                1
            ],
            "translation" : [
                0,
                13.420592308044434,
                10.366156578063965
            ]
        },
        {
            "children" : [
                16
            ],
            "name" : "Button_Angry_Mouth",
            "rotation" : [
                0.7071068286895752,
                0,
                0,
                0.7071067094802856
            ]
        },
        {
            "children" : [
                8,
                13,
                17
            ],
            "name" : "Button_Angry_Face"
        },
        {
            "children" : [
                1,
                18
            ],
            "name" : "Button_Angry_Base",
            "rotation" : [
                -0.7071066498756409,
                0,
                0,
                0.70710688829422
            ],
            "scale" : [
                1.2418749332427979,
                1.2418746948242188,
                1.2418746948242188
            ]
        },
        {
            "children" : [
                0,
                19
            ],
            "name" : "Armature",
            "rotation" : [
                0.7071068286895752,
                0,
                0,
                0.7071067094802856
            ],
            "scale" : [
                0.00617124093696475,
                0.006171238608658314,
                0.006171238608658314
            ]
        }
    ],
    "materials" : [
        {
            "doubleSided" : true,
            "extensions" : {
                "KHR_materials_specular" : {
                    "specularColorFactor" : [
                        0,
                        0,
                        0
                    ]
                },
                "KHR_materials_ior" : {
                    "ior" : 1.4500000476837158
                }
            },
            "name" : "Material #55",
            "pbrMetallicRoughness" : {
                "baseColorTexture" : {
                    "index" : 0
                },
                "roughnessFactor" : 0.858578622341156
            }
        }
    ],
    "meshes" : [
        {
            "name" : "Mesh",
            "primitives" : [
                {
                    "attributes" : {
                        "POSITION" : 0,
                        "NORMAL" : 1,
                        "TEXCOORD_0" : 2
                    },
                    "indices" : 3,
                    "material" : 0
                }
            ]
        }
    ],
    "textures" : [
        {
            "sampler" : 0,
            "source" : 0
        }
    ],
    "images" : [
        {
            "mimeType" : "image/png",
            "name" : "Button_Angry_BaseColor",
            "uri" : "Button_Angry_BaseColor.png"
        }
    ],
    "accessors" : [
        {
            "bufferView" : 0,
            "componentType" : 5126,
            "count" : 1616,
            "max" : [
                16.879798889160156,
                17.591047286987305,
                16.879798889160156
            ],
            "min" : [
                -16.879798889160156,
                -16.879796981811523,
                -16.879796981811523
            ],
            "type" : "VEC3"
        },
        {
            "bufferView" : 1,
            "componentType" : 5126,
            "count" : 1616,
            "type" : "VEC3"
        },
        {
            "bufferView" : 2,
            "componentType" : 5126,
            "count" : 1616,
            "type" : "VEC2"
        },
        {
            "bufferView" : 3,
            "componentType" : 5123,
            "count" : 8352,
            "type" : "SCALAR"
        }
    ],
    "bufferViews" : [
        {
            "buffer" : 0,
            "byteLength" : 19392,
            "byteOffset" : 0,
            "target" : 34962
        },
        {
            "buffer" : 0,
            "byteLength" : 19392,
            "byteOffset" : 19392,
            "target" : 34962
        },
        {
            "buffer" : 0,
            "byteLength" : 12928,
            "byteOffset" : 38784,
            "target" : 34962
        },
        {
            "buffer" : 0,
            "byteLength" : 16704,
            "byteOffset" : 51712,
            "target" : 34963
        }
    ],
    "samplers" : [
        {
            "magFilter" : 9729,
            "minFilter" : 9987
        }
    ],
    "buffers" : [
        {
            "byteLength" : 68416,
            "uri" : "angry.bin"
        }
    ]
}
