{
	"asset":{
		"generator":"Khronos glTF Blender I/O v3.6.27",
		"version":"2.0"
	},
	"extensionsUsed":[
		"KHR_materials_specular"
	],
	"scene":0,
	"scenes":[
		{
			"name":"Scene",
			"nodes":[
				6
			]
		}
	],
	"nodes":[
		{
			"mesh":0,
			"name":"Eye_Material.001_0"
		},
		{
			"children":[
				0
			],
			"name":"Eye",
			"rotation":[
				-0.7071069478988647,
				0,
				0,
				0.7071066498756409
			],
			"scale":[
				99.99999237060547,
				100.00000762939453,
				100.00000762939453
			]
		},
		{
			"mesh":1,
			"name":"EyeGlass_Material.002_0"
		},
		{
			"children":[
				2
			],
			"name":"EyeGlass",
			"rotation":[
				-0.70710688829422,
				0,
				0,
				0.7071066498756409
			],
			"scale":[
				101.29434204101562,
				101.29434204101562,
				101.29434204101562
			]
		},
		{
			"children":[
				1,
				3
			],
			"name":"RootNode"
		},
		{
			"children":[
				4
			],
			"name":"5dbfdc31b2624a048f18566dfe0d648d.fbx",
			"rotation":[
				0.70710688829422,
				0,
				0,
				0.7071066498756409
			],
			"scale":[
				0.009999998845160007,
				0.009999999776482582,
				0.009999999776482582
			]
		},
		{
			"children":[
				5
			],
			"name":"Sketchfab_model",
			"scale":[
				0.14076773822307587,
				0.14076773822307587,
				0.14076773822307587
			]
		}
	],
	"materials":[
		{
			"doubleSided":true,
			"name":"Material.001",
			"normalTexture":{
				"index":0
			},
			"pbrMetallicRoughness":{
				"baseColorTexture":{
					"index":1
				},
				"metallicFactor":0,
				"roughnessFactor":0.16914337873458862
			}
		},
		{
			"alphaMode":"BLEND",
			"doubleSided":true,
			"extensions":{
				"KHR_materials_specular":{
					"specularColorFactor":[
						0.9999999999999999,
						0.9999999999999999,
						0.9999999999999999
					]
				}
			},
			"name":"Material.002",
			"pbrMetallicRoughness":{
				"baseColorFactor":[
					0.800000011920929,
					0.800000011920929,
					0.800000011920929,
					0.37028685212135315
				],
				"roughnessFactor":0.050663772970438004
			}
		}
	],
	"meshes":[
		{
			"name":"Eye_Material.001_0",
			"primitives":[
				{
					"attributes":{
						"POSITION":0,
						"NORMAL":1,
						"TEXCOORD_0":2
					},
					"indices":3,
					"material":0
				}
			]
		},
		{
			"name":"EyeGlass_Material.002_0",
			"primitives":[
				{
					"attributes":{
						"POSITION":4,
						"NORMAL":5,
						"TEXCOORD_0":6
					},
					"indices":7,
					"material":1
				}
			]
		}
	],
	"textures":[
		{
			"sampler":0,
			"source":0
		},
		{
			"sampler":0,
			"source":1
		}
	],
	"images":[
		{
			"bufferView":4,
			"mimeType":"image/png",
			"name":"Material.001_normal"
		},
		{
			"bufferView":5,
			"mimeType":"image/jpeg",
			"name":"Material.001_baseColor"
		}
	],
	"accessors":[
		{
			"bufferView":0,
			"componentType":5126,
			"count":3536,
			"max":[
				0.9872310161590576,
				0.9872311353683472,
				0.9596238732337952
			],
			"min":[
				-0.9872305393218994,
				-0.9872307181358337,
				-0.9975767135620117
			],
			"type":"VEC3"
		},
		{
			"bufferView":1,
			"componentType":5126,
			"count":3536,
			"type":"VEC3"
		},
		{
			"bufferView":2,
			"componentType":5126,
			"count":3536,
			"type":"VEC2"
		},
		{
			"bufferView":3,
			"componentType":5123,
			"count":15744,
			"type":"SCALAR"
		},
		{
			"bufferView":6,
			"componentType":5126,
			"count":3177,
			"max":[
				0.9872310161590576,
				0.9872310161590576,
				1.0158188343048096
			],
			"min":[
				-0.9872305393218994,
				-0.9872307181358337,
				-0.9975767135620117
			],
			"type":"VEC3"
		},
		{
			"bufferView":7,
			"componentType":5126,
			"count":3177,
			"type":"VEC3"
		},
		{
			"bufferView":8,
			"componentType":5126,
			"count":3177,
			"type":"VEC2"
		},
		{
			"bufferView":9,
			"componentType":5123,
			"count":15744,
			"type":"SCALAR"
		}
	],
	"bufferViews":[
		{
			"buffer":0,
			"byteLength":42432,
			"byteOffset":0,
			"target":34962
		},
		{
			"buffer":0,
			"byteLength":42432,
			"byteOffset":42432,
			"target":34962
		},
		{
			"buffer":0,
			"byteLength":28288,
			"byteOffset":84864,
			"target":34962
		},
		{
			"buffer":0,
			"byteLength":31488,
			"byteOffset":113152,
			"target":34963
		},
		{
			"buffer":0,
			"byteLength":461716,
			"byteOffset":144640
		},
		{
			"buffer":0,
			"byteLength":224311,
			"byteOffset":606356
		},
		{
			"buffer":0,
			"byteLength":38124,
			"byteOffset":830668,
			"target":34962
		},
		{
			"buffer":0,
			"byteLength":38124,
			"byteOffset":868792,
			"target":34962
		},
		{
			"buffer":0,
			"byteLength":25416,
			"byteOffset":906916,
			"target":34962
		},
		{
			"buffer":0,
			"byteLength":31488,
			"byteOffset":932332,
			"target":34963
		}
	],
	"samplers":[
		{
			"magFilter":9729,
			"minFilter":9987
		}
	],
	"buffers":[
		{
			"byteLength":963820,
			"uri":"data:application/octet-stream;base64,"
		}
	]
}
