{
    "asset" : {
        "generator" : "Khronos glTF Blender I/O v3.3.32",
        "version" : "2.0"
    },
    "extensionsUsed" : [
        "KHR_materials_specular",
        "KHR_materials_ior"
    ],
    "scene" : 0,
    "scenes" : [
        {
            "name" : "Scene",
            "nodes" : [
                5
            ]
        }
    ],
    "nodes" : [
        {
            "mesh" : 0,
            "name" : "Button_Like"
        },
        {
            "name" : "Button_Like_C",
            "rotation" : [
                0.0999450832605362,
                2.5152534362860024e-05,
                0.23875460028648376,
                0.965923011302948
            ],
            "scale" : [
                0.9999999403953552,
                0.9999998807907104,
                0.9999999403953552
            ],
            "translation" : [
                -7.563853740692139,
                14.936561584472656,
                2.570622205734253
            ]
        },
        {
            "name" : "Button_Like_B",
            "rotation" : [
                -0.22382007539272308,
                0.061903081834316254,
                0.0019496307941153646,
                0.9726606607437134
            ],
            "scale" : [
                0.9999998211860657,
                1.0000001192092896,
                0.9999999403953552
            ],
            "translation" : [
                1.3021104335784912,
                15.635137557983398,
                -8.468169212341309
            ]
        },
        {
            "children" : [
                1,
                2
            ],
            "name" : "Button_Like_A",
            "rotation" : [
                -0.7071068286895752,
                -4.802890529731485e-08,
                -5.874125719174117e-08,
                0.7071067094802856
            ],
            "scale" : [
                0.9999999403953552,
                0.9999999403953552,
                0.9999999403953552
            ]
        },
        {
            "children" : [
                3
            ],
            "name" : "Button_Like_Base",
            "rotation" : [
                0.7071068286895752,
                5.338508302088485e-08,
                5.338509012631221e-08,
                0.7071068286895752
            ],
            "scale" : [
                0.9999999403953552,
                0.9999999403953552,
                0.9999999403953552
            ]
        },
        {
            "children" : [
                0,
                4
            ],
            "name" : "Armature",
            "rotation" : [
                0.7071068286895752,
                0,
                0,
                0.7071067094802856
            ],
            "scale" : [
                0.006593933328986168,
                0.006593932863324881,
                0.006593932863324881
            ]
        }
    ],
    "animations" : [
        {
            "channels" : [
                {
                    "sampler" : 0,
                    "target" : {
                        "node" : 4,
                        "path" : "translation"
                    }
                },
                {
                    "sampler" : 1,
                    "target" : {
                        "node" : 4,
                        "path" : "rotation"
                    }
                },
                {
                    "sampler" : 2,
                    "target" : {
                        "node" : 4,
                        "path" : "scale"
                    }
                },
                {
                    "sampler" : 3,
                    "target" : {
                        "node" : 3,
                        "path" : "translation"
                    }
                },
                {
                    "sampler" : 4,
                    "target" : {
                        "node" : 3,
                        "path" : "rotation"
                    }
                },
                {
                    "sampler" : 5,
                    "target" : {
                        "node" : 3,
                        "path" : "scale"
                    }
                },
                {
                    "sampler" : 6,
                    "target" : {
                        "node" : 1,
                        "path" : "translation"
                    }
                },
                {
                    "sampler" : 7,
                    "target" : {
                        "node" : 1,
                        "path" : "rotation"
                    }
                },
                {
                    "sampler" : 8,
                    "target" : {
                        "node" : 1,
                        "path" : "scale"
                    }
                },
                {
                    "sampler" : 9,
                    "target" : {
                        "node" : 2,
                        "path" : "translation"
                    }
                },
                {
                    "sampler" : 10,
                    "target" : {
                        "node" : 2,
                        "path" : "rotation"
                    }
                },
                {
                    "sampler" : 11,
                    "target" : {
                        "node" : 2,
                        "path" : "scale"
                    }
                }
            ],
            "name" : "Armature|Animated_Like_Button|BaseLayer",
            "samplers" : [
                {
                    "input" : 4,
                    "interpolation" : "LINEAR",
                    "output" : 5
                },
                {
                    "input" : 4,
                    "interpolation" : "LINEAR",
                    "output" : 6
                },
                {
                    "input" : 4,
                    "interpolation" : "LINEAR",
                    "output" : 7
                },
                {
                    "input" : 4,
                    "interpolation" : "LINEAR",
                    "output" : 8
                },
                {
                    "input" : 4,
                    "interpolation" : "LINEAR",
                    "output" : 9
                },
                {
                    "input" : 4,
                    "interpolation" : "LINEAR",
                    "output" : 10
                },
                {
                    "input" : 4,
                    "interpolation" : "LINEAR",
                    "output" : 11
                },
                {
                    "input" : 4,
                    "interpolation" : "LINEAR",
                    "output" : 12
                },
                {
                    "input" : 4,
                    "interpolation" : "LINEAR",
                    "output" : 13
                },
                {
                    "input" : 4,
                    "interpolation" : "LINEAR",
                    "output" : 14
                },
                {
                    "input" : 4,
                    "interpolation" : "LINEAR",
                    "output" : 15
                },
                {
                    "input" : 4,
                    "interpolation" : "LINEAR",
                    "output" : 16
                }
            ]
        },
        {
            "channels" : [
                {
                    "sampler" : 0,
                    "target" : {
                        "node" : 0,
                        "path" : "translation"
                    }
                },
                {
                    "sampler" : 1,
                    "target" : {
                        "node" : 0,
                        "path" : "rotation"
                    }
                },
                {
                    "sampler" : 2,
                    "target" : {
                        "node" : 0,
                        "path" : "scale"
                    }
                }
            ],
            "name" : "Button_Like",
            "samplers" : [
                {
                    "input" : 4,
                    "interpolation" : "LINEAR",
                    "output" : 17
                },
                {
                    "input" : 4,
                    "interpolation" : "LINEAR",
                    "output" : 18
                },
                {
                    "input" : 4,
                    "interpolation" : "LINEAR",
                    "output" : 19
                }
            ]
        }
    ],
    "materials" : [
        {
            "doubleSided" : true,
            "extensions" : {
                "KHR_materials_specular" : {
                    "specularColorFactor" : [
                        1.8970859784779757,
                        1.8970859784779757,
                        1.8970859784779757
                    ]
                },
                "KHR_materials_ior" : {
                    "ior" : 1.4500000476837158
                }
            },
            "name" : "Button_Like",
            "pbrMetallicRoughness" : {
                "baseColorTexture" : {
                    "index" : 0
                },
                "roughnessFactor" : 0.7171573042869568
            }
        }
    ],
    "meshes" : [
        {
            "name" : "Mesh",
            "primitives" : [
                {
                    "attributes" : {
                        "POSITION" : 0,
                        "NORMAL" : 1,
                        "TEXCOORD_0" : 2
                    },
                    "indices" : 3,
                    "material" : 0
                }
            ]
        }
    ],
    "textures" : [
        {
            "sampler" : 0,
            "source" : 0
        }
    ],
    "images" : [
        {
            "bufferView" : 4,
            "mimeType" : "image/png",
            "name" : "Button_Like_BaseColor"
        }
    ],
    "accessors" : [
        {
            "bufferView" : 0,
            "componentType" : 5126,
            "count" : 988,
            "max" : [
                16.879798889160156,
                17.948495864868164,
                16.87980079650879
            ],
            "min" : [
                -16.879798889160156,
                -16.879798889160156,
                -16.879798889160156
            ],
            "type" : "VEC3"
        },
        {
            "bufferView" : 1,
            "componentType" : 5126,
            "count" : 988,
            "type" : "VEC3"
        },
        {
            "bufferView" : 2,
            "componentType" : 5126,
            "count" : 988,
            "type" : "VEC2"
        },
        {
            "bufferView" : 3,
            "componentType" : 5123,
            "count" : 4893,
            "type" : "SCALAR"
        },
        {
            "bufferView" : 5,
            "componentType" : 5126,
            "count" : 44,
            "max" : [
                1.8250000029802322
            ],
            "min" : [
                0.033333336313565574
            ],
            "type" : "SCALAR"
        },
        {
            "bufferView" : 6,
            "componentType" : 5126,
            "count" : 44,
            "type" : "VEC3"
        },
        {
            "bufferView" : 7,
            "componentType" : 5126,
            "count" : 44,
            "type" : "VEC4"
        },
        {
            "bufferView" : 8,
            "componentType" : 5126,
            "count" : 44,
            "type" : "VEC3"
        },
        {
            "bufferView" : 9,
            "componentType" : 5126,
            "count" : 44,
            "type" : "VEC3"
        },
        {
            "bufferView" : 10,
            "componentType" : 5126,
            "count" : 44,
            "type" : "VEC4"
        },
        {
            "bufferView" : 11,
            "componentType" : 5126,
            "count" : 44,
            "type" : "VEC3"
        },
        {
            "bufferView" : 12,
            "componentType" : 5126,
            "count" : 44,
            "type" : "VEC3"
        },
        {
            "bufferView" : 13,
            "componentType" : 5126,
            "count" : 44,
            "type" : "VEC4"
        },
        {
            "bufferView" : 14,
            "componentType" : 5126,
            "count" : 44,
            "type" : "VEC3"
        },
        {
            "bufferView" : 15,
            "componentType" : 5126,
            "count" : 44,
            "type" : "VEC3"
        },
        {
            "bufferView" : 16,
            "componentType" : 5126,
            "count" : 44,
            "type" : "VEC4"
        },
        {
            "bufferView" : 17,
            "componentType" : 5126,
            "count" : 44,
            "type" : "VEC3"
        },
        {
            "bufferView" : 18,
            "componentType" : 5126,
            "count" : 44,
            "type" : "VEC3"
        },
        {
            "bufferView" : 19,
            "componentType" : 5126,
            "count" : 44,
            "type" : "VEC4"
        },
        {
            "bufferView" : 20,
            "componentType" : 5126,
            "count" : 44,
            "type" : "VEC3"
        }
    ],
    "bufferViews" : [
        {
            "buffer" : 0,
            "byteLength" : 11856,
            "byteOffset" : 0,
            "target" : 34962
        },
        {
            "buffer" : 0,
            "byteLength" : 11856,
            "byteOffset" : 11856,
            "target" : 34962
        },
        {
            "buffer" : 0,
            "byteLength" : 7904,
            "byteOffset" : 23712,
            "target" : 34962
        },
        {
            "buffer" : 0,
            "byteLength" : 9786,
            "byteOffset" : 31616,
            "target" : 34963
        },
        {
            "buffer" : 0,
            "byteLength" : 508221,
            "byteOffset" : 41404
        },
        {
            "buffer" : 0,
            "byteLength" : 176,
            "byteOffset" : 549628
        },
        {
            "buffer" : 0,
            "byteLength" : 528,
            "byteOffset" : 549804
        },
        {
            "buffer" : 0,
            "byteLength" : 704,
            "byteOffset" : 550332
        },
        {
            "buffer" : 0,
            "byteLength" : 528,
            "byteOffset" : 551036
        },
        {
            "buffer" : 0,
            "byteLength" : 528,
            "byteOffset" : 551564
        },
        {
            "buffer" : 0,
            "byteLength" : 704,
            "byteOffset" : 552092
        },
        {
            "buffer" : 0,
            "byteLength" : 528,
            "byteOffset" : 552796
        },
        {
            "buffer" : 0,
            "byteLength" : 528,
            "byteOffset" : 553324
        },
        {
            "buffer" : 0,
            "byteLength" : 704,
            "byteOffset" : 553852
        },
        {
            "buffer" : 0,
            "byteLength" : 528,
            "byteOffset" : 554556
        },
        {
            "buffer" : 0,
            "byteLength" : 528,
            "byteOffset" : 555084
        },
        {
            "buffer" : 0,
            "byteLength" : 704,
            "byteOffset" : 555612
        },
        {
            "buffer" : 0,
            "byteLength" : 528,
            "byteOffset" : 556316
        },
        {
            "buffer" : 0,
            "byteLength" : 528,
            "byteOffset" : 556844
        },
        {
            "buffer" : 0,
            "byteLength" : 704,
            "byteOffset" : 557372
        },
        {
            "buffer" : 0,
            "byteLength" : 528,
            "byteOffset" : 558076
        }
    ],
    "samplers" : [
        {
            "magFilter" : 9729,
            "minFilter" : 9987
        }
    ],
    "buffers" : [
        {
            "byteLength" : 558604,
            "uri" : "data:application/octet-stream;base64,"
        }
    ]
}
