{
    "asset" : {
        "generator" : "Khronos glTF Blender I/O v3.3.32",
        "version" : "2.0"
    },
    "extensionsUsed" : [
        "KHR_materials_ior"
    ],
    "scene" : 0,
    "scenes" : [
        {
            "name" : "Scene",
            "nodes" : [
                8
            ]
        }
    ],
    "nodes" : [
        {
            "mesh" : 0,
            "name" : "Button_Haha"
        },
        {
            "name" : "Button_Love_A",
            "rotation" : [
                -1.4210856409267898e-14,
                -3.178652008273275e-08,
                -1.1671966768552876e-21,
                1
            ],
            "scale" : [
                0.9999999403953552,
                0.9999999403953552,
                0.9999999403953552
            ]
        },
        {
            "name" : "Button_Love_B2",
            "rotation" : [
                6.904700455834245e-08,
                -7.574775473528916e-09,
                -5.230155281169815e-16,
                1
            ],
            "scale" : [
                0.9999999403953552,
                0.9999999403953552,
                0.9999999403953552
            ],
            "translation" : [
                -9.56895632953092e-07,
                19.930877685546875,
                5.656240463256836
            ]
        },
        {
            "children" : [
                2
            ],
            "name" : "Button_Love_B1",
            "rotation" : [
                -0.7071068286895752,
                -4.802890529731485e-08,
                -5.8741267849882206e-08,
                0.7071067094802856
            ],
            "scale" : [
                0.9999999403953552,
                0.9999999403953552,
                0.9999999403953552
            ]
        },
        {
            "name" : "Button_Love_CL",
            "rotation" : [
                0.569627583026886,
                -0.21588821709156036,
                -0.2636643350124359,
                0.747929036617279
            ],
            "scale" : [
                0.9999998807907104,
                0.9999998807907104,
                0.9999999403953552
            ],
            "translation" : [
                8.578644752502441,
                17.818164825439453,
                -8.657604217529297
            ]
        },
        {
            "name" : "Button_Love_CR",
            "rotation" : [
                0.5696278810501099,
                0.21588794887065887,
                0.2636636197566986,
                0.7479291558265686
            ],
            "scale" : [
                0.9999999403953552,
                0.9999998807907104,
                0.9999998807907104
            ],
            "translation" : [
                -8.578200340270996,
                17.818164825439453,
                -8.657600402832031
            ]
        },
        {
            "children" : [
                4,
                5
            ],
            "name" : "Button_Love_C",
            "rotation" : [
                -0.7071068286895752,
                -4.802890529731485e-08,
                -5.8741267849882206e-08,
                0.7071067094802856
            ],
            "scale" : [
                0.9999999403953552,
                0.9999999403953552,
                0.9999999403953552
            ]
        },
        {
            "children" : [
                1,
                3,
                6
            ],
            "name" : "Button_Love_Base",
            "rotation" : [
                0.7071068286895752,
                5.338509012631221e-08,
                5.338508302088485e-08,
                0.7071068286895752
            ],
            "scale" : [
                0.9999999403953552,
                0.9999999403953552,
                0.9999999403953552
            ]
        },
        {
            "children" : [
                0,
                7
            ],
            "name" : "Armature",
            "rotation" : [
                0.7071068286895752,
                0,
                0,
                0.7071067094802856
            ],
            "scale" : [
                0.006353663746267557,
                0.00635366328060627,
                0.00635366328060627
            ]
        }
    ],
    "animations" : [
        {
            "channels" : [
                {
                    "sampler" : 0,
                    "target" : {
                        "node" : 7,
                        "path" : "translation"
                    }
                },
                {
                    "sampler" : 1,
                    "target" : {
                        "node" : 7,
                        "path" : "rotation"
                    }
                },
                {
                    "sampler" : 2,
                    "target" : {
                        "node" : 7,
                        "path" : "scale"
                    }
                },
                {
                    "sampler" : 3,
                    "target" : {
                        "node" : 1,
                        "path" : "translation"
                    }
                },
                {
                    "sampler" : 4,
                    "target" : {
                        "node" : 1,
                        "path" : "rotation"
                    }
                },
                {
                    "sampler" : 5,
                    "target" : {
                        "node" : 1,
                        "path" : "scale"
                    }
                },
                {
                    "sampler" : 6,
                    "target" : {
                        "node" : 3,
                        "path" : "translation"
                    }
                },
                {
                    "sampler" : 7,
                    "target" : {
                        "node" : 3,
                        "path" : "rotation"
                    }
                },
                {
                    "sampler" : 8,
                    "target" : {
                        "node" : 3,
                        "path" : "scale"
                    }
                },
                {
                    "sampler" : 9,
                    "target" : {
                        "node" : 2,
                        "path" : "translation"
                    }
                },
                {
                    "sampler" : 10,
                    "target" : {
                        "node" : 2,
                        "path" : "rotation"
                    }
                },
                {
                    "sampler" : 11,
                    "target" : {
                        "node" : 2,
                        "path" : "scale"
                    }
                },
                {
                    "sampler" : 12,
                    "target" : {
                        "node" : 6,
                        "path" : "translation"
                    }
                },
                {
                    "sampler" : 13,
                    "target" : {
                        "node" : 6,
                        "path" : "rotation"
                    }
                },
                {
                    "sampler" : 14,
                    "target" : {
                        "node" : 6,
                        "path" : "scale"
                    }
                },
                {
                    "sampler" : 15,
                    "target" : {
                        "node" : 4,
                        "path" : "translation"
                    }
                },
                {
                    "sampler" : 16,
                    "target" : {
                        "node" : 4,
                        "path" : "rotation"
                    }
                },
                {
                    "sampler" : 17,
                    "target" : {
                        "node" : 4,
                        "path" : "scale"
                    }
                },
                {
                    "sampler" : 18,
                    "target" : {
                        "node" : 5,
                        "path" : "translation"
                    }
                },
                {
                    "sampler" : 19,
                    "target" : {
                        "node" : 5,
                        "path" : "rotation"
                    }
                },
                {
                    "sampler" : 20,
                    "target" : {
                        "node" : 5,
                        "path" : "scale"
                    }
                }
            ],
            "name" : "Armature|save07|BaseLayer",
            "samplers" : [
                {
                    "input" : 4,
                    "interpolation" : "LINEAR",
                    "output" : 5
                },
                {
                    "input" : 4,
                    "interpolation" : "LINEAR",
                    "output" : 6
                },
                {
                    "input" : 4,
                    "interpolation" : "LINEAR",
                    "output" : 7
                },
                {
                    "input" : 4,
                    "interpolation" : "LINEAR",
                    "output" : 8
                },
                {
                    "input" : 4,
                    "interpolation" : "LINEAR",
                    "output" : 9
                },
                {
                    "input" : 4,
                    "interpolation" : "LINEAR",
                    "output" : 10
                },
                {
                    "input" : 4,
                    "interpolation" : "LINEAR",
                    "output" : 11
                },
                {
                    "input" : 4,
                    "interpolation" : "LINEAR",
                    "output" : 12
                },
                {
                    "input" : 4,
                    "interpolation" : "LINEAR",
                    "output" : 13
                },
                {
                    "input" : 4,
                    "interpolation" : "LINEAR",
                    "output" : 14
                },
                {
                    "input" : 4,
                    "interpolation" : "LINEAR",
                    "output" : 15
                },
                {
                    "input" : 4,
                    "interpolation" : "LINEAR",
                    "output" : 16
                },
                {
                    "input" : 4,
                    "interpolation" : "LINEAR",
                    "output" : 17
                },
                {
                    "input" : 4,
                    "interpolation" : "LINEAR",
                    "output" : 18
                },
                {
                    "input" : 4,
                    "interpolation" : "LINEAR",
                    "output" : 19
                },
                {
                    "input" : 4,
                    "interpolation" : "LINEAR",
                    "output" : 20
                },
                {
                    "input" : 4,
                    "interpolation" : "LINEAR",
                    "output" : 21
                },
                {
                    "input" : 4,
                    "interpolation" : "LINEAR",
                    "output" : 22
                },
                {
                    "input" : 4,
                    "interpolation" : "LINEAR",
                    "output" : 23
                },
                {
                    "input" : 4,
                    "interpolation" : "LINEAR",
                    "output" : 24
                },
                {
                    "input" : 4,
                    "interpolation" : "LINEAR",
                    "output" : 25
                }
            ]
        },
        {
            "channels" : [
                {
                    "sampler" : 0,
                    "target" : {
                        "node" : 0,
                        "path" : "translation"
                    }
                },
                {
                    "sampler" : 1,
                    "target" : {
                        "node" : 0,
                        "path" : "rotation"
                    }
                },
                {
                    "sampler" : 2,
                    "target" : {
                        "node" : 0,
                        "path" : "scale"
                    }
                }
            ],
            "name" : "Button_Haha",
            "samplers" : [
                {
                    "input" : 4,
                    "interpolation" : "LINEAR",
                    "output" : 26
                },
                {
                    "input" : 4,
                    "interpolation" : "LINEAR",
                    "output" : 27
                },
                {
                    "input" : 4,
                    "interpolation" : "LINEAR",
                    "output" : 28
                }
            ]
        }
    ],
    "materials" : [
        {
            "doubleSided" : true,
            "extensions" : {
                "KHR_materials_specular" : {
                    "specularColorFactor" : [
                        0,
                        0,
                        0
                    ]
                },
                "KHR_materials_ior" : {
                    "ior" : 1.4500000476837158
                }
            },
            "name" : "Button_Haha",
            "pbrMetallicRoughness" : {
                "baseColorTexture" : {
                    "index" : 0
                },
                "roughnessFactor" : 0.858578622341156
            }
        }
    ],
    "meshes" : [
        {
            "name" : "Mesh",
            "primitives" : [
                {
                    "attributes" : {
                        "POSITION" : 0,
                        "NORMAL" : 1,
                        "TEXCOORD_0" : 2
                    },
                    "indices" : 3,
                    "material" : 0
                }
            ]
        }
    ],
    "textures" : [
        {
            "sampler" : 0,
            "source" : 0
        }
    ],
    "images" : [
        {
            "bufferView" : 4,
            "mimeType" : "image/png",
            "name" : "./Button_Haha_Base_Color.png"
        }
    ],
    "accessors" : [
        {
            "bufferView" : 0,
            "componentType" : 5126,
            "count" : 1088,
            "max" : [
                20.96259880065918,
                21.283205032348633,
                20.96259880065918
            ],
            "min" : [
                -20.96259880065918,
                -20.96259880065918,
                -20.96259880065918
            ],
            "type" : "VEC3"
        },
        {
            "bufferView" : 1,
            "componentType" : 5126,
            "count" : 1088,
            "type" : "VEC3"
        },
        {
            "bufferView" : 2,
            "componentType" : 5126,
            "count" : 1088,
            "type" : "VEC2"
        },
        {
            "bufferView" : 3,
            "componentType" : 5123,
            "count" : 5796,
            "type" : "SCALAR"
        },
        {
            "bufferView" : 5,
            "componentType" : 5126,
            "count" : 44,
            "max" : [
                1.8250000029802322
            ],
            "min" : [
                0.033333336313565574
            ],
            "type" : "SCALAR"
        },
        {
            "bufferView" : 6,
            "componentType" : 5126,
            "count" : 44,
            "type" : "VEC3"
        },
        {
            "bufferView" : 7,
            "componentType" : 5126,
            "count" : 44,
            "type" : "VEC4"
        },
        {
            "bufferView" : 8,
            "componentType" : 5126,
            "count" : 44,
            "type" : "VEC3"
        },
        {
            "bufferView" : 9,
            "componentType" : 5126,
            "count" : 44,
            "type" : "VEC3"
        },
        {
            "bufferView" : 10,
            "componentType" : 5126,
            "count" : 44,
            "type" : "VEC4"
        },
        {
            "bufferView" : 11,
            "componentType" : 5126,
            "count" : 44,
            "type" : "VEC3"
        },
        {
            "bufferView" : 12,
            "componentType" : 5126,
            "count" : 44,
            "type" : "VEC3"
        },
        {
            "bufferView" : 13,
            "componentType" : 5126,
            "count" : 44,
            "type" : "VEC4"
        },
        {
            "bufferView" : 14,
            "componentType" : 5126,
            "count" : 44,
            "type" : "VEC3"
        },
        {
            "bufferView" : 15,
            "componentType" : 5126,
            "count" : 44,
            "type" : "VEC3"
        },
        {
            "bufferView" : 16,
            "componentType" : 5126,
            "count" : 44,
            "type" : "VEC4"
        },
        {
            "bufferView" : 17,
            "componentType" : 5126,
            "count" : 44,
            "type" : "VEC3"
        },
        {
            "bufferView" : 18,
            "componentType" : 5126,
            "count" : 44,
            "type" : "VEC3"
        },
        {
            "bufferView" : 19,
            "componentType" : 5126,
            "count" : 44,
            "type" : "VEC4"
        },
        {
            "bufferView" : 20,
            "componentType" : 5126,
            "count" : 44,
            "type" : "VEC3"
        },
        {
            "bufferView" : 21,
            "componentType" : 5126,
            "count" : 44,
            "type" : "VEC3"
        },
        {
            "bufferView" : 22,
            "componentType" : 5126,
            "count" : 44,
            "type" : "VEC4"
        },
        {
            "bufferView" : 23,
            "componentType" : 5126,
            "count" : 44,
            "type" : "VEC3"
        },
        {
            "bufferView" : 24,
            "componentType" : 5126,
            "count" : 44,
            "type" : "VEC3"
        },
        {
            "bufferView" : 25,
            "componentType" : 5126,
            "count" : 44,
            "type" : "VEC4"
        },
        {
            "bufferView" : 26,
            "componentType" : 5126,
            "count" : 44,
            "type" : "VEC3"
        },
        {
            "bufferView" : 27,
            "componentType" : 5126,
            "count" : 44,
            "type" : "VEC3"
        },
        {
            "bufferView" : 28,
            "componentType" : 5126,
            "count" : 44,
            "type" : "VEC4"
        },
        {
            "bufferView" : 29,
            "componentType" : 5126,
            "count" : 44,
            "type" : "VEC3"
        }
    ],
    "bufferViews" : [
        {
            "buffer" : 0,
            "byteLength" : 13056,
            "byteOffset" : 0,
            "target" : 34962
        },
        {
            "buffer" : 0,
            "byteLength" : 13056,
            "byteOffset" : 13056,
            "target" : 34962
        },
        {
            "buffer" : 0,
            "byteLength" : 8704,
            "byteOffset" : 26112,
            "target" : 34962
        },
        {
            "buffer" : 0,
            "byteLength" : 11592,
            "byteOffset" : 34816,
            "target" : 34963
        },
        {
            "buffer" : 0,
            "byteLength" : 613296,
            "byteOffset" : 46408
        },
        {
            "buffer" : 0,
            "byteLength" : 176,
            "byteOffset" : 659704
        },
        {
            "buffer" : 0,
            "byteLength" : 528,
            "byteOffset" : 659880
        },
        {
            "buffer" : 0,
            "byteLength" : 704,
            "byteOffset" : 660408
        },
        {
            "buffer" : 0,
            "byteLength" : 528,
            "byteOffset" : 661112
        },
        {
            "buffer" : 0,
            "byteLength" : 528,
            "byteOffset" : 661640
        },
        {
            "buffer" : 0,
            "byteLength" : 704,
            "byteOffset" : 662168
        },
        {
            "buffer" : 0,
            "byteLength" : 528,
            "byteOffset" : 662872
        },
        {
            "buffer" : 0,
            "byteLength" : 528,
            "byteOffset" : 663400
        },
        {
            "buffer" : 0,
            "byteLength" : 704,
            "byteOffset" : 663928
        },
        {
            "buffer" : 0,
            "byteLength" : 528,
            "byteOffset" : 664632
        },
        {
            "buffer" : 0,
            "byteLength" : 528,
            "byteOffset" : 665160
        },
        {
            "buffer" : 0,
            "byteLength" : 704,
            "byteOffset" : 665688
        },
        {
            "buffer" : 0,
            "byteLength" : 528,
            "byteOffset" : 666392
        },
        {
            "buffer" : 0,
            "byteLength" : 528,
            "byteOffset" : 666920
        },
        {
            "buffer" : 0,
            "byteLength" : 704,
            "byteOffset" : 667448
        },
        {
            "buffer" : 0,
            "byteLength" : 528,
            "byteOffset" : 668152
        },
        {
            "buffer" : 0,
            "byteLength" : 528,
            "byteOffset" : 668680
        },
        {
            "buffer" : 0,
            "byteLength" : 704,
            "byteOffset" : 669208
        },
        {
            "buffer" : 0,
            "byteLength" : 528,
            "byteOffset" : 669912
        },
        {
            "buffer" : 0,
            "byteLength" : 528,
            "byteOffset" : 670440
        },
        {
            "buffer" : 0,
            "byteLength" : 704,
            "byteOffset" : 670968
        },
        {
            "buffer" : 0,
            "byteLength" : 528,
            "byteOffset" : 671672
        },
        {
            "buffer" : 0,
            "byteLength" : 528,
            "byteOffset" : 672200
        },
        {
            "buffer" : 0,
            "byteLength" : 704,
            "byteOffset" : 672728
        },
        {
            "buffer" : 0,
            "byteLength" : 528,
            "byteOffset" : 673432
        }
    ],
    "samplers" : [
        {
            "magFilter" : 9729,
            "minFilter" : 9987
        }
    ],
    "buffers" : [
        {
            "byteLength" : 673960,
            "uri" : "data:application/octet-stream;base64,"
        }
    ]
}
