{
    "asset" : {
        "generator" : "Khronos glTF Blender I/O v3.3.32",
        "version" : "2.0"
    },
    "extensionsUsed" : [
        "KHR_materials_ior"
    ],
    "scene" : 0,
    "scenes" : [
        {
            "name" : "Scene",
            "nodes" : [
                9
            ]
        }
    ],
    "nodes" : [
        {
            "mesh" : 0,
            "name" : "Button_Wow"
        },
        {
            "name" : "Button_Wow_A"
        },
        {
            "name" : "Button_Wow_Eye_L",
            "rotation" : [
                -0.09942901134490967,
                0.0026233713142573833,
                -0.23922333121299744,
                0.9658567309379578
            ],
            "translation" : [
                7.512563705444336,
                14.628098487854004,
                -4.5113420486450195
            ]
        },
        {
            "name" : "Button_Wow_Eye_R",
            "rotation" : [
                -0.032898642122745514,
                -0.2569659650325775,
                0.2569660544395447,
                0.9310503005981445
            ],
            "translation" : [
                -7.512999534606934,
                14.62809944152832,
                -4.511341094970703
            ]
        },
        {
            "children" : [
                2,
                3
            ],
            "name" : "Button_Wow_Brow",
            "rotation" : [
                -0.7071068286895752,
                0,
                0,
                0.7071067094802856
            ],
            "scale" : [
                1.0474696159362793,
                1.0474692583084106,
                1.0474692583084106
            ]
        },
        {
            "name" : "Button_Wow_Lip",
            "rotation" : [
                0.8221325278282166,
                0,
                0,
                0.5692962408065796
            ],
            "scale" : [
                1.2805750370025635,
                1.2805756330490112,
                1.2805755138397217
            ],
            "translation" : [
                0,
                14.845513343811035,
                7.3864569664001465
            ]
        },
        {
            "children" : [
                5
            ],
            "name" : "Button_Wow_Mouth",
            "rotation" : [
                -0.7071068286895752,
                0,
                0,
                0.7071067094802856
            ],
            "scale" : [
                0.964713990688324,
                0.9647137522697449,
                0.9647137522697449
            ]
        },
        {
            "children" : [
                4,
                6
            ],
            "name" : "Button_Wow_Face",
            "scale" : [
                0.9532562494277954,
                0.9532562494277954,
                0.9532562494277954
            ]
        },
        {
            "children" : [
                1,
                7
            ],
            "name" : "Button_Wow_Base",
            "rotation" : [
                0.7071068286895752,
                0,
                0,
                0.7071067094802856
            ],
            "scale" : [
                1.2418750524520874,
                1.2418750524520874,
                1.2418750524520874
            ]
        },
        {
            "children" : [
                0,
                8
            ],
            "name" : "Armature",
            "rotation" : [
                0.7071068286895752,
                0,
                0,
                0.7071067094802856
            ],
            "scale" : [
                0.005929504055529833,
                0.005929502658545971,
                0.005929502658545971
            ]
        }
    ],
    "materials" : [
        {
            "doubleSided" : true,
            "extensions" : {
                "KHR_materials_specular" : {
                    "specularColorFactor" : [
                        0,
                        0,
                        0
                    ]
                },
                "KHR_materials_ior" : {
                    "ior" : 1.4500000476837158
                }
            },
            "name" : "Button_Wow",
            "pbrMetallicRoughness" : {
                "baseColorTexture" : {
                    "index" : 0
                },
                "roughnessFactor" : 0.858578622341156
            }
        }
    ],
    "meshes" : [
        {
            "name" : "Mesh.001",
            "primitives" : [
                {
                    "attributes" : {
                        "POSITION" : 0,
                        "NORMAL" : 1,
                        "TEXCOORD_0" : 2
                    },
                    "indices" : 3,
                    "material" : 0
                }
            ]
        }
    ],
    "textures" : [
        {
            "sampler" : 0,
            "source" : 0
        }
    ],
    "images" : [
        {
            "mimeType" : "image/png",
            "name" : "Button_Wow_Base_Color",
            "uri" : "Button_Wow_Base_Color.png"
        }
    ],
    "accessors" : [
        {
            "bufferView" : 0,
            "componentType" : 5126,
            "count" : 1321,
            "max" : [
                16.879798889160156,
                17.106895446777344,
                16.879796981811523
            ],
            "min" : [
                -16.879798889160156,
                -16.879796981811523,
                -16.879796981811523
            ],
            "type" : "VEC3"
        },
        {
            "bufferView" : 1,
            "componentType" : 5126,
            "count" : 1321,
            "type" : "VEC3"
        },
        {
            "bufferView" : 2,
            "componentType" : 5126,
            "count" : 1321,
            "type" : "VEC2"
        },
        {
            "bufferView" : 3,
            "componentType" : 5123,
            "count" : 7080,
            "type" : "SCALAR"
        }
    ],
    "bufferViews" : [
        {
            "buffer" : 0,
            "byteLength" : 15852,
            "byteOffset" : 0,
            "target" : 34962
        },
        {
            "buffer" : 0,
            "byteLength" : 15852,
            "byteOffset" : 15852,
            "target" : 34962
        },
        {
            "buffer" : 0,
            "byteLength" : 10568,
            "byteOffset" : 31704,
            "target" : 34962
        },
        {
            "buffer" : 0,
            "byteLength" : 14160,
            "byteOffset" : 42272,
            "target" : 34963
        }
    ],
    "samplers" : [
        {
            "magFilter" : 9729,
            "minFilter" : 9987
        }
    ],
    "buffers" : [
        {
            "byteLength" : 56432,
            "uri" : "omg.bin"
        }
    ]
}
