{
    "asset" : {
        "generator" : "Khronos glTF Blender I/O v3.3.32",
        "version" : "2.0"
    },
    "extensionsUsed" : [
        "KHR_materials_ior"
    ],
    "scene" : 0,
    "scenes" : [
        {
            "name" : "Scene",
            "nodes" : [
                13
            ]
        }
    ],
    "nodes" : [
        {
            "mesh" : 0,
            "name" : "Button_Sad"
        },
        {
            "name" : "Button_Sad_Face"
        },
        {
            "name" : "Button_Sad_EyeL",
            "rotation" : [
                0,
                3.0133380732877413e-06,
                0,
                1
            ],
            "translation" : [
                0,
                1.1340336799621582,
                -4.5746564865112305e-06
            ]
        },
        {
            "children" : [
                2
            ],
            "name" : "Button_Sad_Eye_L",
            "rotation" : [
                0.7198008894920349,
                -0.15957801043987274,
                -0.1462266594171524,
                0.6595751047134399
            ],
            "scale" : [
                1.8127002716064453,
                1.8127001523971558,
                1.812699794769287
            ],
            "translation" : [
                8.822641372680664,
                18.352182388305664,
                1.612956166267395
            ]
        },
        {
            "name" : "Button_Sad_EyeR",
            "rotation" : [
                0,
                -3.0138464808260323e-06,
                0,
                1
            ],
            "translation" : [
                0,
                1.1340339183807373,
                -3.337860107421875e-06
            ]
        },
        {
            "children" : [
                4
            ],
            "name" : "Button_Sad_Eye_R",
            "rotation" : [
                0.7198010087013245,
                0.1595780998468399,
                0.14622671902179718,
                0.6595749855041504
            ],
            "scale" : [
                1.8127000331878662,
                1.8127001523971558,
                1.8127000331878662
            ],
            "translation" : [
                -8.822392463684082,
                18.352176666259766,
                1.6129560470581055
            ]
        },
        {
            "name" : "Button_Sad_Mouth",
            "rotation" : [
                0.21643956005573273,
                0,
                0,
                0.9762960076332092
            ],
            "translation" : [
                0,
                17.24159812927246,
                10.684098243713379
            ]
        },
        {
            "name" : "Button_Sad_Tear_L",
            "translation" : [
                -7.703954696655273,
                92.94815826416016,
                33.182125091552734
            ]
        },
        {
            "children" : [
                7
            ],
            "name" : "Button_Sad_TearL",
            "rotation" : [
                0,
                0,
                -0.38268351554870605,
                0.9238795042037964
            ]
        },
        {
            "name" : "Button_Sad_Tear_R",
            "rotation" : [
                0.03965660184621811,
                -0.023243432864546776,
                -0.5211136937141418,
                0.8522486090660095
            ],
            "translation" : [
                -3.036962698388379e-05,
                -1.918263478728477e-05,
                -1.1993016414635349e-05
            ]
        },
        {
            "children" : [
                9
            ],
            "name" : "Button_Sad_TearR",
            "rotation" : [
                0,
                0,
                0.3826834559440613,
                0.9238795638084412
            ]
        },
        {
            "children" : [
                3,
                5,
                6,
                8,
                10
            ],
            "name" : "Button_Sad_Face_A",
            "rotation" : [
                -0.7071068286895752,
                0,
                0,
                0.7071067094802856
            ]
        },
        {
            "children" : [
                1,
                11
            ],
            "name" : "Button_Sad_Base",
            "rotation" : [
                0.7071068286895752,
                0,
                0,
                0.7071067094802856
            ],
            "scale" : [
                1.2418750524520874,
                1.2418749332427979,
                1.2418749332427979
            ]
        },
        {
            "children" : [
                0,
                12
            ],
            "name" : "Armature",
            "rotation" : [
                0.7071068286895752,
                0,
                0,
                0.7071067094802856
            ],
            "scale" : [
                0.006500551011413336,
                0.006500550080090761,
                0.006500550080090761
            ]
        }
    ],
    "materials" : [
        {
            "doubleSided" : true,
            "extensions" : {
                "KHR_materials_specular" : {
                    "specularColorFactor" : [
                        0,
                        0,
                        0
                    ]
                },
                "KHR_materials_ior" : {
                    "ior" : 1.4500000476837158
                }
            },
            "name" : "Button_Sad",
            "pbrMetallicRoughness" : {
                "baseColorTexture" : {
                    "index" : 0
                },
                "roughnessFactor" : 0.858578622341156
            }
        }
    ],
    "meshes" : [
        {
            "name" : "Mesh",
            "primitives" : [
                {
                    "attributes" : {
                        "POSITION" : 0,
                        "NORMAL" : 1,
                        "TEXCOORD_0" : 2
                    },
                    "indices" : 3,
                    "material" : 0
                }
            ]
        }
    ],
    "textures" : [
        {
            "sampler" : 0,
            "source" : 0
        }
    ],
    "images" : [
        {
            "mimeType" : "image/png",
            "name" : "Button_Sad_Base_Color",
            "uri" : "Button_Sad_Base_Color.png"
        }
    ],
    "accessors" : [
        {
            "bufferView" : 0,
            "componentType" : 5126,
            "count" : 1767,
            "max" : [
                16.879798889160156,
                16.879796981811523,
                16.879798889160156
            ],
            "min" : [
                -16.879798889160156,
                -16.87980079650879,
                -16.879798889160156
            ],
            "type" : "VEC3"
        },
        {
            "bufferView" : 1,
            "componentType" : 5126,
            "count" : 1767,
            "type" : "VEC3"
        },
        {
            "bufferView" : 2,
            "componentType" : 5126,
            "count" : 1767,
            "type" : "VEC2"
        },
        {
            "bufferView" : 3,
            "componentType" : 5123,
            "count" : 9432,
            "type" : "SCALAR"
        }
    ],
    "bufferViews" : [
        {
            "buffer" : 0,
            "byteLength" : 21204,
            "byteOffset" : 0,
            "target" : 34962
        },
        {
            "buffer" : 0,
            "byteLength" : 21204,
            "byteOffset" : 21204,
            "target" : 34962
        },
        {
            "buffer" : 0,
            "byteLength" : 14136,
            "byteOffset" : 42408,
            "target" : 34962
        },
        {
            "buffer" : 0,
            "byteLength" : 18864,
            "byteOffset" : 56544,
            "target" : 34963
        }
    ],
    "samplers" : [
        {
            "magFilter" : 9729,
            "minFilter" : 9987
        }
    ],
    "buffers" : [
        {
            "byteLength" : 75408,
            "uri" : "sad.bin"
        }
    ]
}
